
<svg xmlns="http://www.w3.org/2000/svg" version="1.1" width="59px" height="50px" style="shape-rendering:geometricPrecision; text-rendering:geometricPrecision; image-rendering:optimizeQuality; fill-rule:evenodd; clip-rule:evenodd" xmlns:xlink="http://www.w3.org/1999/xlink">
<g><path style="opacity:0.967" fill="#f24c20" d="M 10.5,-0.5 C 14.5,-0.5 18.5,-0.5 22.5,-0.5C 24.5078,1.26762 26.6744,2.93429 29,4.5C 30.9651,2.44965 33.1318,0.782988 35.5,-0.5C 39.5,-0.5 43.5,-0.5 47.5,-0.5C 52.5559,2.22272 56.2226,6.22272 58.5,11.5C 58.5,15.5 58.5,19.5 58.5,23.5C 55.1962,35.1386 48.1962,43.8053 37.5,49.5C 33.8333,49.5 30.1667,49.5 26.5,49.5C 21.7785,47.3963 19.6119,43.7296 20,38.5C 21.7506,36.5101 22.7506,34.1768 23,31.5C 24.4133,29.5864 26.2466,28.2531 28.5,27.5C 30.6146,31.0001 32.4479,34.6667 34,38.5C 35.7662,33.5499 35.5995,28.5499 33.5,23.5C 44.8476,12.517 44.0142,11.1837 31,19.5C 27.0811,17.6382 23.0811,15.9715 19,14.5C 17.7753,14.8623 16.6086,15.3623 15.5,16C 19.2816,17.9544 22.6149,20.4544 25.5,23.5C 23.5889,27.2104 20.7556,28.5437 17,27.5C 9.61106,30.5751 3.77773,28.5751 -0.5,21.5C -0.5,17.8333 -0.5,14.1667 -0.5,10.5C 2.16667,5.83333 5.83333,2.16667 10.5,-0.5 Z"/></g>
</svg>
