<?xml version="1.0" encoding="UTF-8"?>
		<!DOCTYPE svg PUBLIC "-//W3C//DTD SVG 1.1//EN" "http://www.w3.org/Graphics/SVG/1.1/DTD/svg11.dtd">
		<svg version="1.1" id="Layer_1" xmlns="http://www.w3.org/2000/svg" xmlns:xlink="http://www.w3.org/1999/xlink" x="0px" y="0px"
		 width="1700px" height="674.15436047875px" viewBox="0 0 295.35625 100.718852942"
		 style="enable-background:new 0 0 255.35625 80.718852942002;" xml:space="preserve"><style type='text/css'>.title{fill:#f24c21;}.slogan{fill:#f24c21;}</style><g transform="scale(2.2447318948343) translate(0, 0)"><g>
	<path fill="#f24c21" d="M6.163,0.84C7.423,0.275,8.81,0,10.242,0c1.073,0,2.109,0.173,3.1,0.515
		c0.986,0.34,1.916,0.847,2.781,1.516c0.435,0.336,0.848,0.708,1.237,1.115c0.146,0.152,0.289,0.309,0.427,0.469
		c0.138-0.161,0.281-0.317,0.427-0.47c0.389-0.406,0.802-0.779,1.237-1.115c0.865-0.669,1.796-1.176,2.781-1.516
		C23.223,0.173,24.259,0,25.332,0c1.432,0,2.812,0.29,4.078,0.841c1.265,0.55,2.41,1.362,3.375,2.408
		c0.946,1.026,1.68,2.242,2.178,3.581c3.578,9.628-7.744,25.816-17.834,23.13c-1.9-0.506-5.398-2.879-4.287-6.336
		c0.191-0.596,0.433-1.056,0.641-1.258l0.601-0.479c0.218-0.174,0.322-0.386,0.315-0.638l-0.057-1.165
		c-0.008-0.252,0.097-0.465,0.314-0.637l2.871-2.29c0.099-0.079,0.191-0.104,0.277-0.076c0.087,0.028,0.142,0.097,0.166,0.208
		l2.589,6.89c0.044,0.095,0.108,0.155,0.194,0.184c0.088,0.028,0.17,0.011,0.248-0.053c2.706-2.157,0.759-5.604,0.199-9.646
		c-0.043-0.256,0.045-0.471,0.262-0.644c6.874-5.481,5.217-8.13-1.936-2.427c-0.217,0.173-0.445,0.21-0.685,0.112
		c-3.816-1.445-6.743-4.111-9.448-1.955c-0.079,0.063-0.115,0.14-0.107,0.23s0.053,0.168,0.136,0.23l6.14,4.059
		c0.103,0.047,0.153,0.121,0.151,0.219c-0.002,0.099-0.043,0.179-0.122,0.242l-2.871,2.289c-0.217,0.173-0.448,0.228-0.692,0.165
		l-1.123-0.315c-0.244-0.063-0.475-0.009-0.692,0.164c-1.052,0.839-2.499,1.118-3.923,0.708C-2.781,15.128-1.344,4.208,6.163,0.84z"
		/>
</g>
</g></svg>