<?xml version="1.0" encoding="UTF-8"?>
		<!DOCTYPE svg PUBLIC "-//W3C//DTD SVG 1.1//EN" "http://www.w3.org/Graphics/SVG/1.1/DTD/svg11.dtd">
		<svg version="1.1" id="Layer_1" xmlns="http://www.w3.org/2000/svg" xmlns:xlink="http://www.w3.org/1999/xlink" x="0px" y="0px"
		 width="1700px" height="674.15436047875px" viewBox="0 0 295.35625 100.718852942"
		 style="enable-background:new 0 0 255.35625 80.718852942002;" xml:space="preserve"><style type='text/css'>.title{fill:#f24c21;}.slogan{fill:#f24c21;}</style><g transform="scale(2.2447318948343) translate(0, 0)"><g>
	<path fill="#f24c21" d="M6.163,0.84C7.423,0.275,8.81,0,10.242,0c1.073,0,2.109,0.173,3.1,0.515
		c0.986,0.34,1.916,0.847,2.781,1.516c0.435,0.336,0.848,0.708,1.237,1.115c0.146,0.152,0.289,0.309,0.427,0.469
		c0.138-0.161,0.281-0.317,0.427-0.47c0.389-0.406,0.802-0.779,1.237-1.115c0.865-0.669,1.796-1.176,2.781-1.516
		C23.223,0.173,24.259,0,25.332,0c1.432,0,2.812,0.29,4.078,0.841c1.265,0.55,2.41,1.362,3.375,2.408
		c0.946,1.026,1.68,2.242,2.178,3.581c3.578,9.628-7.744,25.816-17.834,23.13c-1.9-0.506-5.398-2.879-4.287-6.336
		c0.191-0.596,0.433-1.056,0.641-1.258l0.601-0.479c0.218-0.174,0.322-0.386,0.315-0.638l-0.057-1.165
		c-0.008-0.252,0.097-0.465,0.314-0.637l2.871-2.29c0.099-0.079,0.191-0.104,0.277-0.076c0.087,0.028,0.142,0.097,0.166,0.208
		l2.589,6.89c0.044,0.095,0.108,0.155,0.194,0.184c0.088,0.028,0.17,0.011,0.248-0.053c2.706-2.157,0.759-5.604,0.199-9.646
		c-0.043-0.256,0.045-0.471,0.262-0.644c6.874-5.481,5.217-8.13-1.936-2.427c-0.217,0.173-0.445,0.21-0.685,0.112
		c-3.816-1.445-6.743-4.111-9.448-1.955c-0.079,0.063-0.115,0.14-0.107,0.23s0.053,0.168,0.136,0.23l6.14,4.059
		c0.103,0.047,0.153,0.121,0.151,0.219c-0.002,0.099-0.043,0.179-0.122,0.242l-2.871,2.289c-0.217,0.173-0.448,0.228-0.692,0.165
		l-1.123-0.315c-0.244-0.063-0.475-0.009-0.692,0.164c-1.052,0.839-2.499,1.118-3.923,0.708C-2.781,15.128-1.344,4.208,6.163,0.84z"
		/>
</g>
</g><g transform="scale(0.0425) translate(1957.6470588235, 1090.8100346118)"><path transform="translate(0,0) rotate(180) scale(-1, 1)" d="M78 -6q-7 0 -10 3t-3 8v3l1 2v6l-1 9l-1 9q-1 10 -1 22v92q-1 20 -1 29l1 27l2 18q2 11 2 18v10q0 13 3 19q4 7 20 7q5 0 13 -2l5 -1h4q2 0 2 1q0 2 -4 4l-4 1l-4 1l-7 3l-8 2h-6q-13 0 -13 12l1 6v5q0 3 -1 7l-1 7l-3 16l-2 17v6l-1 6q0 10 6 16l2 2l3 2q3 2 3 5 q0 1 -5 5q-5 3 -5 7t3 7t6 3l5 -1h4q3 0 5 1q2 2 2 4t-3 5t-8 3h-6q-4 0 -7 7l-1 5q-1 3 -1 4q0 10 6 11h6q4 0 7 1q3 2 8 2l9 1q3 1 8 2l9 3l8 2q5 0 8 1t5 3q2 3 2 5q0 5 -4 5q-2 0 -8 -1l-4 -1l-5 -1l-6 1h-14l-7 -1l-7 -1h-7q-6 0 -10 8l-1 7l-1 6v9l1 8l-1 11 q-2 8 -2 14q0 23 23 23h9q7 0 13 3q4 2 4 4t-7 3l-6 1h-6l-2 1l-3 1l-3 1q-3 0 -5 -1l-3 -2q-4 -2 -7 -2q-12 0 -12 15q0 5 2 12l1 6l1 5v10l1 10q1 12 6 19q3 3 9 4q4 1 12 1l12 -1l13 -1q16 -2 25 -2l11 1l12 2q15 3 23 3l17 -1l18 -1h45l20 -1l20 -1l32 1l32 2l20 -1 l8 -1l9 -1q11 -1 14 -6q5 -6 5 -21l-1 -11v-8q0 -7 2 -18l1 -9l1 -9v-16l-1 -10v-7q0 -7 -7 -12q-8 -6 -23 -6q-1 0 -19 -1l-15 -1h-44q-31 0 -43 1h-11l-12 2q-17 2 -26 2q-19 0 -28 -9q-5 -5 -5 -10l1 -3l1 -4q1 -5 1 -8q0 -10 -11 -11h-7q-3 -1 -5 -3q-4 -3 -4 -7 q0 -3 1 -4t3 -1l4 1l4 1q4 0 4 -6q0 -3 -2 -5l-2 -1l-2 -1q-2 0 -6 2l-5 2l-3 2l-3 1q-4 2 -6 2q-3 0 -3 -3q0 -5 4 -12q5 -8 9 -8q3 0 9 3l5 3l5 1q4 0 6 -3q3 -2 3 -5q0 -8 -9 -8h-5l-8 -1q-11 -2 -11 -7q0 -6 10 -6h5q9 0 14 -7q13 -19 22 -20l6 -2l6 -2q9 -3 14 -3t13 5 q8 6 15 6q14 0 38 -3l18 -2q10 -1 20 -1h8l9 1q14 2 21 2q27 0 28 -21v-12l1 -10v-40l-1 -10v-16l1 -7q0 -11 -8 -15q-6 -3 -18 -3h-38l-17 -1h-15l-15 1h-34l-9 -1l-11 1l-11 1q-9 0 -17 -2q-9 -2 -15 -6q-9 -6 -9 -20l1 -11l1 -20v-21q0 -27 2 -47v-7l1 -6q1 -9 1 -14 q0 -7 -3 -13l-2 -4v-11l2 -5q2 -6 2 -13q0 -17 -4 -36q-3 -17 -16 -18l-4 -1h-5q-6 0 -11 7q-5 6 -7 6t-3 -4l-1 -3l-1 -3q-2 -2 -5 -2l-26 -1l-25 -3h-14zM166 578q1 1 1 3q0 3 -2 5q-3 3 -5 3q-5 0 -5 -4q0 -3 2 -6q2 -2 5 -2t4 1zM137 569q2 2 2 4q0 3 -1 5q-2 1 -3 1 q-4 0 -4 -5q0 -7 4 -7q1 0 2 2zM102 534q4 2 4 6q0 5 -5 8q-4 2 -10 2q-10 0 -10 -7q0 -4 4 -7q4 -4 10 -4q4 0 7 2zM111 504l4 3l4 4l3 1l4 2q5 3 5 6q0 4 -5 7q-3 2 -8 2t-13 -15l-2 -4l-1 -3q0 -2 1 -4h1l1 -1q2 0 6 2zM188 509q0 2 -2 5l-5 5l-1 1l-2 3q-2 3 -4 3l-1 -1 l-1 -2q0 -1 1 -3l2 -5l-1 -3v-4q0 -8 7 -7q7 0 7 8zM87 490q1 2 1 4q-1 6 -6 6q-4 0 -4 -5q0 -3 2 -4q1 -2 3 -2t4 1zM97 441q0 2 -4 2q-2 0 -3 -1q-2 -2 -2 -3q0 -3 4 -3q5 0 5 5zM105 389q5 4 5 11q0 3 -3 6q-2 4 -6 4q-1 0 -3 -2q-1 -1 -2 -3v-5l-3 -3l-2 -3q-1 -2 -1 -4 q0 -4 6 -4q5 0 9 3zM97 341q2 2 2 4q0 5 -5 5q-5 -1 -6 -6q0 -4 5 -4q2 0 4 1zM108 303q1 2 1 5q0 8 -9 8q-6 0 -6 -7t8 -8q4 0 6 2zM148 296q1 1 1 3q1 4 -3 4q-2 0 -4 -2q-1 -2 -1 -4q0 -3 3 -3q2 0 4 2zM130 296q0 3 -3 3q-2 0 -3 -1q-1 -2 -1 -3q0 -3 3 -3q4 0 4 4z M221 273q2 1 3 4q1 2 0 4t-4 2q-5 0 -7 -6t4 -6q2 0 4 2zM93 258q2 2 2 4q0 3 -3 4q-2 2 -5 2q-6 0 -6 -5q0 -6 8 -6q3 0 4 1zM124 249l4 5q2 3 2 5t-1 3q-2 2 -6 2q-7 0 -15 -5q-10 -6 -10 -12q0 -4 5 -6q3 -2 7 -2q6 0 14 10zM176 235q0 3 -3 5q-2 2 -5 2q-5 0 -5 -4 q0 -2 3 -5q3 -2 6 -2q4 0 4 4zM125 228q0 2 -1 3l-3 1l-2 -1q-2 -1 -2 -2q0 -4 4 -4t4 3zM139 72q2 2 2 5q0 5 -2 7q-1 2 -4 2q-2 0 -5 -3q-2 -3 -2 -6q0 -6 5 -7q3 0 6 2z" class='title'/><path transform="translate(471,0) rotate(180) scale(-1, 1)" d="M438 -1l-22 2q-14 1 -21 1l-9 1l-9 2q-9 2 -13 8q-8 10 -11 29l-3 16l-2 16l-1 7l-1 8q-2 11 -6 14q-5 3 -17 3h-40l-41 1h-7l-7 1l-15 1q-20 0 -29 -11q-4 -4 -6 -13l-2 -7l-1 -7q-4 -14 -11 -24q-2 -2 -2 -6l2 -8l1 -4l1 -4q0 -13 -16 -13h-5l-4 1q-5 1 -7 1t-7 -4 l-4 -2l-3 -1q-10 -2 -18 -3q-11 -2 -18 -2q-6 0 -15 2l-9 1l-12 2l-7 1l-7 2q-7 3 -7 10q0 3 1 6q4 16 7 34q5 38 17 67q1 3 2 13l1 8l2 9q3 23 10 23q5 0 10 -8l3 -6l3 -5l1 -5q1 -4 2 -5q2 -4 4 -4q3 1 3 5l-2 7q-1 4 -1 6t2 4q2 1 4 1h7q4 0 7 2q5 4 5 8q0 2 -2 4 q-2 1 -5 1l-4 -1l-4 -1q-6 -3 -9 -3t-5 3q-2 1 -3 5l-1 3l-1 3l-4 7l-5 7q-1 4 -1 7q0 9 7 9q4 0 9 -2l3 -1l2 -1q5 0 11 5q5 5 5 10q0 3 -7 5l-5 2q-3 1 -3 3q0 3 6 3h7q6 0 6 4l-1 5l-2 5l1 5l1 4q0 2 -2 3q-1 1 -3 1t-4 -2l-4 -4q-6 -7 -10 -7q-5 0 -5 4q0 3 2 8l2 4l2 3 q3 6 3 13q0 16 6 39l5 19l5 19q2 5 2 17l1 8l1 8q3 16 10 32q6 14 10 33l3 16l4 17l1 8l1 9q2 9 4 15l4 7l4 5q2 4 2 7v4q-1 3 -1 6q0 6 3 14l2 8l2 7l2 10l3 11q3 12 3 19l-1 6q0 13 9 14q2 0 4 -2l2 -1q2 -1 4 -1t3 2l1 2l2 2q3 2 7 2l7 -1l7 -1q1 0 14 2h9q6 1 9 1 q18 0 24 -10q3 -5 10 -7l5 -1l6 -2l4 -4l3 -4q4 -6 7 -6q4 0 7 4q3 5 3 11v6l-1 6q0 9 11 9q7 0 16 -4t12 -10q3 -4 5 -13l1 -7l1 -7l4 -16l4 -17l1 -8l1 -9q1 -10 3 -16l6 -15l6 -16q4 -12 7 -32l3 -15l4 -17q1 -6 2 -17l1 -10l1 -8q2 -7 6 -19l6 -18l3 -16l3 -15 q3 -19 7 -30q14 -42 17 -65l5 -34l5 -34q2 -7 5 -16l6 -16l5 -19l4 -19l5 -16l4 -17q6 -20 6 -34q0 -10 -13 -11l-4 -1q-1 -1 -1 -3t5 -3h4l4 -1q7 0 10 -8l2 -8l1 -6q0 -16 -18 -16q-15 0 -42 2zM199 584q0 2 -2 4l-2 2l-2 1q-4 5 -4 11q0 2 2 10q3 9 3 12q0 2 -1 4 q-1 1 -2 1q-2 0 -7 -8l-3 -6q-1 -3 -2 -4q-2 -9 -2 -13q0 -5 1 -9q2 -4 7 -6l3 -2l3 -1q5 0 7 2zM234 578v12q0 5 5 9l2 2l2 2q2 2 2 5q0 4 -5 7t-11 3q-17 0 -17 -17v-8q1 -6 3 -10q5 -13 14 -13q5 0 5 8zM222 472q0 2 -3 9q-3 6 -5 9q-3 5 -7 5q-7 0 -7 -9q0 -12 8 -20 q3 -2 7 -2q8 0 7 8zM297 234q12 0 12 13q0 4 -2 13l-1 6l-1 6q-3 30 -8 55q-2 10 -9 29l-5 14l-5 14l-3 16l-2 15l-1 7l-1 7q-1 10 -3 14q-3 5 -5 5q-5 -1 -10 -17q-2 -5 -3 -12l-1 -5l-1 -2q0 -2 -1 -7l-1 -8q-2 -11 -5 -14q-1 -1 -3 -1l-4 1l-5 1q-3 0 -6 -4q-4 -4 -4 -8 q0 -5 5 -10q10 -9 10 -15q0 -13 -4 -31l-4 -15l-5 -16l-2 -7l-2 -8q-3 -11 -3 -18q0 -15 15 -15l18 -1l17 -1l8 -1h25zM304 418l1 7v7q0 5 -3 10q-3 4 -7 4q-5 0 -5 -8v-4l1 -4q1 -5 1 -7l-1 -3v-4q0 -7 6 -7q5 0 7 9zM143 412q2 3 2 7q0 8 -5 8q-3 0 -6 -3t-3 -8q0 -3 1 -5 q2 -2 5 -2t6 3zM398 342q2 2 2 6q0 3 -4 3q-2 0 -4 -1q-2 -2 -2 -5q0 -5 5 -4q2 0 3 1zM323 317q1 3 1 7q0 2 -1 6l-1 7q-3 8 -9 8q-7 0 -7 -10q0 -12 6 -19q4 -2 6 -2q3 0 5 3zM168 318q4 4 4 8q0 5 -6 5q-4 0 -7 -3q-3 -4 -3 -8q0 -3 2 -5t4 -2q3 0 6 5zM195 250q1 2 1 4 q0 6 -5 10l-5 2l-4 4l-2 2l-2 3q-3 4 -5 4q-1 0 -2 -2l-1 -3q0 -4 4 -9l4 -3l4 -3l3 -3l2 -4q4 -4 6 -4q1 0 2 2zM202 181v4l-1 3l-1 4l-2 5q-2 6 -4 8l-4 4l-3 2q-4 2 -5 6q-1 6 -5 10t-8 4t-4 -6q0 -13 9 -25q3 -3 8 -7l4 -2l4 -4l1 -3l2 -4q2 -7 5 -7q4 0 4 8zM418 182 q0 3 -5 3q-4 0 -4 -4q0 -2 1 -3q2 -1 3 -1q4 0 5 5zM132 175q1 2 1 4q0 3 -3 3t-5 -2q-1 -1 -1 -4t4 -3q2 0 4 2zM204 153q1 2 1 4q0 3 -1 6t-4 3q-1 0 -2 -2v-4q0 -3 1 -6t3 -3q1 0 2 2zM106 136q4 0 7 5t3 9q0 3 -4 3q-3 0 -7 -4t-4 -8q0 -2 2 -4l2 -1h1zM146 147 q0 4 -6 4q-5 0 -8 -3t-3 -6q0 -6 7 -6q10 0 10 11zM439 127q3 3 3 6q0 4 -5 4t-8 -3q-3 -2 -3 -6q0 -5 5 -5q4 0 8 4zM415 89q6 3 6 7q0 3 -3 7l-2 3l-1 2q-5 7 -15 11l-6 2l-6 2q-2 0 -3 -2q-1 -1 -1 -2q0 -3 2 -6l2 -2l2 -2l4 -3l5 -2q5 -3 5 -6q0 -1 -3 -3l-2 -2l-1 -2 q0 -4 6 -4t11 2zM438 112q0 2 -2 2t-2 -2v-1l2 -1q1 0 2 2zM383 84q0 6 -6 6q-5 0 -5 -6q0 -2 2 -3q1 -2 4 -2q5 0 5 5z" class='title'/><path transform="translate(995,0) rotate(180) scale(-1, 1)" d="M130 23l-7 5l-6 4q-9 5 -12 10l-3 5l-4 4l-6 4l-7 4q-29 22 -32 60l-2 8l-2 7q-3 8 -3 14l1 11l1 11l-1 7l-2 8q0 13 11 18q8 4 21 4l16 -1q9 -1 12 -1q7 0 13 1l11 1q15 3 22 3q19 0 23 -11q3 -5 3 -17v-17q1 -10 4 -16q4 -9 12 -12q7 -4 24 -4l3 1h30q8 -1 16 0 q21 0 29 12q7 11 7 32v24q0 28 -17 39q-6 4 -17 7l-10 3l-9 2q-7 2 -18 7l-18 7l-18 6l-18 6l-19 8q-12 6 -19 8l-15 6q-9 3 -15 8q-10 9 -25 26q-20 22 -31 58q-5 19 -9 83q0 7 1 18l2 17l1 10l3 10l2 4l2 4q3 5 4 11q4 15 15 29q5 7 14 14l8 6l7 7l14 12q9 7 16 11l9 5 q6 3 10 3t6 -6q3 -7 9 -7q4 1 8 3q4 3 4 6q0 1 -2 4l-1 4q0 4 5 6q5 3 9 3q6 0 15 -5l6 -4q3 -1 6 -1t6 3l3 2l2 2q4 1 9 1h10l6 -2l4 -3q6 -3 10 -3h4q6 2 18 2l9 1q5 1 9 1q7 0 17 -3q8 -2 16 -5q7 -3 16 -10l8 -5l8 -6q6 -4 13 -10l13 -12q6 -6 11 -16l4 -9l4 -9 q9 -18 11 -34q1 -8 4 -21l3 -10l2 -11l1 -8l1 -8q0 -10 -5 -16q-4 -5 -12 -5l-8 1h-16l-9 -1q-12 -2 -17 -2q-9 0 -25 2h-12l-12 1q-21 0 -21 25v12q0 7 -1 12q-4 15 -23 20q-8 3 -18 3q-7 1 -16 1q-23 0 -37 -5q-20 -7 -24 -23q-2 -8 -3 -19l-2 -19v-10q0 -14 8 -23 q5 -5 15 -10l9 -4l9 -4l19 -9q11 -4 20 -6l17 -4q10 -2 17 -5l9 -5l8 -4q10 -5 18 -7q20 -5 35 -12q8 -4 16 -12q5 -5 13 -15q3 -3 3 -6t-3 -7q-4 -5 -4 -7q0 -4 2 -5t4 -1h2l2 1l3 -1l3 -3l2 -2q2 -2 4 -2l4 -1q6 -2 10 -10l3 -7l3 -7q8 -17 8 -48v-9l1 -9v-6l-1 -6 q-1 -7 -1 -11v-22q0 -35 -25 -81q-18 -33 -55 -48l-4 -2l-5 -2q-6 -3 -9 -3q-1 0 -9 9q-3 3 -5 3l-4 -1q-3 -1 -6 -1t-12 4q-3 1 -8 1q-6 0 -13 -4q-7 -5 -7 -9q0 -2 2 -4l3 -4q6 -4 6 -6t-3 -3q-2 -1 -5 -1h-8l-9 1l-19 -1l-16 -2l-16 -1q-48 0 -79 23zM208 625q0 3 -4 6 q-3 3 -7 3t-7 -2q-1 -1 -1 -3q0 -3 4 -6t8 -3q7 0 7 5zM198 577q0 2 -3 7l-3 4l-1 2q-9 15 -18 15q-3 0 -5 -2t-2 -4q0 -8 5 -12l5 -3l5 -2l3 -2l4 -3q4 -3 6 -3q4 0 4 3zM214 556q2 3 2 5t-1 3l-2 1q-2 0 -5 -2q-2 -3 -2 -7q0 -2 2 -2q3 0 6 2zM282 552q0 5 -5 5 q-5 1 -5 -4q0 -2 1 -4q2 -1 4 -1q5 0 5 4zM117 496q2 2 2 6q0 8 -7 8q-4 1 -6 -2t-2 -7q0 -8 7 -8q4 0 6 3zM376 285q2 1 2 2q0 3 -3 4l-2 1l-2 1q-3 2 -3 5l-1 2v7q-1 4 -4 4q-4 0 -7 -5q-3 -4 -3 -8q0 -6 6 -10t12 -4q3 0 5 1zM104 121q0 4 -4 4q-2 0 -3 -1q-2 -2 -2 -4 q0 -5 4 -5q5 0 5 6zM145 78l1 2q0 4 -8 8q-8 5 -14 5t-6 -5q0 -4 10 -8q8 -2 14 -2h3zM377 57q2 3 2 7q0 3 -2 5q-2 3 -6 3t-6 -3t-2 -6q0 -8 9 -8q3 0 5 2zM293 15q-2 2 -2 5q0 2 2 3q2 2 4 2q3 0 6 -3q2 -4 2 -6q0 -4 -4 -4q-5 0 -8 3z" class='title'/><path transform="translate(1479,0) rotate(180) scale(-1, 1)" d="M272 8q-9 1 -13 1h-8q-12 0 -18 6l-2 3l-2 3q-3 4 -5 4t-4 -2q-1 -2 -1 -4l1 -3v-4q0 -4 -10 -4q-3 0 -11 2q-7 1 -11 1h-5q-10 0 -10 8l-2 12q-1 7 -1 13v8l1 8q1 11 1 14q0 4 1 9l1 4v5q0 3 -3 7l-2 4l-1 3l-1 6v34l1 35l1 34l-1 9l-1 10l-1 19q0 10 2 18q1 5 3 7 q3 4 7 3q3 0 6 -2l5 -5q5 -7 9 -7q1 0 3 1l5 3q6 4 6 7q0 4 -5 4q-15 0 -16 1q-5 1 -10 4q-6 3 -8 6q-3 3 -3 5l-1 5l1 8v7l1 7l1 6l-1 8l-1 8q-2 10 -2 22v65l1 16l1 16q1 21 1 29q0 14 -14 18q-5 1 -14 2h-12l-12 3q-8 1 -12 1t-9 -2l-4 -1l-5 -1l-6 1h-14l-9 -1 q-23 0 -23 35l1 19q2 13 2 19q0 5 -2 18q-2 12 -2 19q0 28 43 28h8l10 -1q13 -1 19 -1l15 1l14 1h6l6 -2q8 -2 11 -2q4 0 7 2q8 4 27 3l17 -1h17q4 0 14 1h15q9 0 25 -1l12 -1h13l43 -1l43 -1q13 0 20 -2q10 -4 13 -15q3 -15 3 -36v-14l-1 -14l-1 -15l-1 -16q-2 -22 -31 -22 h-31q-6 -1 -17 -1l-18 1q-14 0 -23 -4q-8 -4 -8 -16v-10l1 -9q0 -6 -2 -9q-3 -8 -9 -8q-4 0 -11 2l-5 2l-5 1q-6 0 -12 -5q-6 -4 -6 -9q0 -4 4 -7q10 -8 15 -17q4 -6 7 -6l3 1l3 1q4 3 7 3l2 -1v-2l-1 -4l-1 -4q0 -3 4 -6l2 -2l2 -3l1 -5v-19l-1 -19v-7q0 -12 -1 -19l-1 -13 l1 -7l1 -8v-12l-1 -12v-12l1 -13l-1 -8v-21q0 -19 2 -40q2 -12 2 -27v-28l-1 -8l-1 -10q-1 -13 -1 -21v-12l1 -12q0 -6 2 -18l1 -9l1 -9q0 -28 -24 -28zM85 547q2 2 2 5q0 2 -1 4q-2 1 -4 1t-4 -2t-2 -5q0 -6 5 -6q2 0 4 3zM284 443q-3 0 -6 2q-4 3 -4 6q0 4 5 4q3 0 6 -3 t3 -6q0 -2 -1 -3h-3zM289 365q3 3 3 6q0 2 -1 3q-1 2 -3 2t-5 -3q-3 -4 -3 -7v-3q1 -2 3 -2q3 0 6 4zM195 345q0 3 -2 5q-1 1 -4 1t-5 -1q-2 -2 -2 -4t3 -4q2 -2 5 -1q5 0 5 4zM234 327q2 1 2 2q0 4 -7 4q-3 0 -5 -2q-2 -1 -2 -3t5 -2q4 0 7 1zM258 299q2 1 2 3q0 3 -6 3 q-4 0 -5 -3q0 -1 2 -3q2 -1 4 -1t3 1zM218 110q1 2 1 4q0 3 -3 6q-2 3 -6 3q-6 0 -6 -5q0 -3 3 -6q2 -3 7 -3q2 0 4 1zM241 66q0 2 -2 6l-3 6q-4 5 -8 5q-2 0 -5 -1q-2 -2 -4 -2t-7 1l-3 1h-2q-4 0 -4 -5q0 -2 2 -4l4 -2l6 -1q4 -1 7 -2l3 -3l2 -2q3 -3 7 -3q7 0 7 6z M225 52q0 3 -5 5q-5 3 -9 3q-6 0 -6 -4q0 -5 5 -7l5 -1l4 -1q6 0 6 5zM264 35q0 3 -3 5q-2 2 -5 2q-8 0 -8 -6q0 -2 3 -3q3 -2 5 -2q8 0 8 4z" class='title'/><path transform="translate(1952,0) rotate(180) scale(-1, 1)" d="M196 2l-12 2q-6 1 -14 1l-12 -1l-13 -1q-17 0 -23 16q0 2 -1 10q-1 7 -1 15q0 17 -4 30l-5 16q-2 10 -3 17v26q0 15 -6 39q-1 5 -1 16l-1 8l-1 7l-2 9l-3 8q-3 10 -4 17l-3 13l-2 14l-1 11l-1 12q0 5 2 10t2 7q0 3 -3 6l-3 3l-2 2q-3 5 -4 13v18l-2 7l-2 7q-2 8 -2 14 l-1 17q-1 9 -3 16l-3 9q-2 6 -2 9q0 4 3 7q4 4 4 6t-3 5l-3 2l-2 3q-2 4 -4 13l-1 8l-2 7q-2 5 -3 15l-2 16q-3 14 -6 36l-6 35l-1 5l-1 7q-3 8 -3 13t3 8q3 4 3 6q0 3 -4 6q-5 4 -5 9q0 12 6 18q3 3 9 3q15 0 35 -2l16 -1q10 -1 19 -1q6 0 11 1l7 1q10 1 12 1q12 0 16 -8 q1 -3 2 -8v-8q2 -21 13 -59q3 -12 4 -33l1 -17l1 -17l5 -33l3 -16q2 -9 2 -16q0 -6 2 -15l5 -14l1 -6l1 -5q0 -3 -1 -8l-2 -7q0 -4 2 -8l1 -3l1 -4v-10q0 -6 2 -18l1 -9l2 -9q1 -22 10 -61l1 -2v-3l2 -7q2 -8 6 -8q5 0 6 8v8l1 6q0 7 3 16l3 7l3 7q2 7 3 17l2 17l3 16l4 15 q6 21 7 32q3 27 12 61l2 15l2 15q2 19 5 29q2 6 6 6l3 -1l3 -1q1 0 3 1q1 2 1 3q0 3 -4 8q-5 5 -5 10q0 3 7 7t7 9q0 3 -6 9q-5 5 -5 12q0 4 2 11l1 6l1 5l4 16l3 17q4 24 35 24l7 1h50l10 1q6 0 9 -1q5 -2 8 -9l3 -6l1 -6l2 -5l1 -5q0 -2 -2 -4h-1l-1 -1l-3 1l-3 1 q-7 0 -7 -8q0 -4 2 -6q2 -3 5 -3l3 1l3 1q3 0 4 -6l1 -5v-3q1 -6 5 -16l5 -16l1 -5l2 -6q2 -7 2 -12t-4 -11q-4 -5 -4 -8t3 -7q10 -12 11 -19q3 -17 8 -29l1 -3l2 -4q0 -3 -3 -5q-3 -3 -3 -5t3 -5l2 -3l2 -2v-6q0 -6 2 -14l1 -6l1 -5q0 -2 -1 -3l-3 -1h-7q-5 0 -5 -5 q0 -3 7 -4l5 -1l4 -1q12 -4 17 -26q1 -6 2 -15l1 -7l1 -5l3 -18l3 -18v-4l1 -5l1 -11q2 -14 7 -14t10 19q2 7 3 15q1 7 1 10l-1 8l-1 8q0 11 4 26l2 6l1 5q2 5 2 7l2 17l1 16q2 21 5 34q3 12 5 35l1 17l2 18l4 14q2 9 3 15l1 6l1 7q2 8 4 12q4 4 9 4h5l6 -1q3 0 8 3q4 4 4 7 q0 2 -2 2h-4l-3 -2h-4q-3 0 -7 4q-13 12 -13 20q0 6 3 15l2 7l2 7q2 6 9 8q7 1 7 4l-1 2l-1 2q-3 2 -3 4t3 3q2 1 5 1q5 0 7 -2l1 -3l1 -3q1 -3 4 -7l2 -2l3 -4l2 -5l3 -4q2 -5 6 -8l2 -1l3 -1q3 -2 3 -4t-1 -2l-2 -1h-3l-4 1q-7 0 -7 -12q0 -4 2 -7q2 -2 4 -2q3 0 8 4 q4 5 8 5h4q2 0 5 2l5 4l6 4l5 3l6 2q7 3 9 8l3 6l1 7q0 6 -8 6q-3 0 -8 -3q-6 -3 -8 -3q-3 0 -3 7q0 4 1 9q2 6 4 8q3 4 9 4q2 0 5 -2l4 -4q6 -5 9 -5q2 0 7 4q5 3 9 3q5 0 8 -4l1 -4l1 -3q0 -5 -3 -12l-2 -6l-2 -6v-11q0 -4 -3 -11l-3 -5l-2 -5l-3 -5l-3 -5q-3 -6 -3 -11 q0 -3 4 -7q3 -5 3 -9v-6l-1 -5q-1 -6 -4 -17l-2 -9l-2 -8l-1 -8l-1 -7q-1 -9 -3 -15l-2 -5l-1 -3q-2 -4 -2 -6v-3l1 -3q1 -4 1 -8l-1 -12v-12q0 -12 -4 -33v-6l-1 -8q-1 -10 -3 -14q-2 -3 -7 -3h-5q-6 0 -6 -4q0 -2 1 -6l4 -6q5 -8 5 -13l-2 -13l-2 -14l-4 -36l-5 -32 l-3 -17l-1 -18q-3 -18 -6 -28q-3 -6 -4 -15v-7l-1 -7l-1 -3v-3l-2 -7q-3 -10 -8 -10l-4 2l-4 1q-5 0 -5 -4q0 -2 2 -4q1 -1 3 -1h3l3 1q3 0 4 -3t1 -7l-1 -18l-2 -18l-1 -6l-1 -7q-1 -8 -3 -10q-5 -5 -5 -10v-5q0 -2 -2 -5q-1 -3 -6 -4l-3 -2q-2 -1 -3 -3l-2 -5l-2 -5 q-2 -4 -9 -4h-4l-3 1h-14q-9 0 -15 2l-5 2l-4 1l-5 -1l-5 -1l-3 -2h-4l-18 1l-18 1q-29 0 -36 26q-2 7 -5 22l-2 11l-3 10q-3 13 -6 32l-6 33q-2 13 -7 31l-4 15l-4 15l-6 30l-6 29q-1 6 -3 17l-1 8l-2 8l-1 5l-1 7l-2 12q-4 15 -9 15q-6 0 -11 -19q-1 -6 -2 -14l-1 -6 l-1 -3l-1 -16q-1 -9 -3 -15l-5 -14q-3 -9 -4 -15l-4 -14l-3 -13q-5 -16 -6 -26v-5l-1 -5l-1 -10l-3 -13l-4 -13q-6 -16 -8 -25l-2 -17l-1 -17q-2 -20 -7 -33l-5 -13q-3 -8 -7 -12q-3 -5 -10 -7q-5 -2 -12 -3q-23 -2 -40 -2q-10 0 -25 2zM595 641q0 4 3 7q2 3 6 3q5 0 5 -7 q0 -4 -2 -7t-5 -3q-7 0 -7 7zM116 622q0 7 -8 7q-9 0 -9 -6q0 -3 2 -6q3 -2 6 -2q9 0 9 7zM341 601q1 8 -5 8q-2 0 -5 -2q-3 -3 -3 -5q0 -3 3 -5q2 -2 5 -2q5 0 5 6zM410 542q0 3 -3 6q-3 2 -6 2t-3 -5q0 -4 2 -7q3 -2 6 -2q4 0 4 6zM652 520q3 3 3 7t-4 4t-8 -4 q-4 -3 -4 -7q0 -3 4 -3q5 0 9 3zM608 501q2 2 2 4q0 8 -6 16t-10 8q-6 0 -6 -6t7 -14q6 -8 10 -9q2 0 3 1zM399 516q0 4 -4 4l-3 -1q-1 -1 -1 -3q0 -1 1 -3l3 -1q4 0 4 4zM422 508l1 3l-1 2q-1 2 -3 2q-1 0 -3 -2v-3q0 -1 1 -3l3 -1q1 0 2 2zM631 463q0 4 -4 8t-8 4 q-5 0 -5 -6q0 -4 5 -8q4 -4 8 -4t4 6zM431 460q0 3 -2 7q-3 4 -6 4t-6 -3q-1 -3 -1 -6q0 -8 9 -8q6 0 6 6zM323 451q3 3 3 6q-1 5 -7 5q-3 0 -6 -3q-2 -3 -2 -6q1 -6 6 -6q4 0 6 4zM429 431q1 2 1 4t-2 4t-4 2t-3 -2q-1 -1 -1 -4q0 -2 2 -4q1 -2 3 -2t4 2zM180 434q0 2 -2 4 t-4 2t-3 -2q-1 -1 -1 -4q0 -2 3 -4q1 -1 3 -1q4 0 4 5zM110 412q3 4 3 8q0 5 -5 5q-3 0 -7 -3q-3 -3 -3 -7q-1 -6 5 -6q4 0 7 3zM129 389q2 2 2 4t-1 4q-1 1 -4 1q-2 0 -4 -1q-2 -2 -2 -5q0 -5 5 -5q2 0 4 2zM166 379q0 2 -2 4t-3 2q-3 0 -4 -2q-1 -1 -1 -3t1 -3q2 -1 4 -1 q5 0 5 3zM99 376q0 2 -2 4t-5 2q-6 0 -6 -4q0 -3 2 -5t5 -2q5 0 6 5zM626 361q3 2 3 3q0 6 -4 6q-3 0 -5 -2t-2 -4q0 -4 4 -4q3 0 4 1zM124 354q0 4 -3 7q-2 2 -6 2t-6 -1q-2 -2 -2 -5t2 -5q2 -4 7 -4q8 0 8 6zM616 295q3 3 3 7q0 3 -1 6q-1 4 -3 4q-5 0 -8 -4q-4 -4 -4 -8 q0 -3 2 -6t4 -3q4 0 7 4zM563 111q3 2 3 5q0 6 -7 6q-3 0 -6 -2q-3 -1 -3 -4q0 -6 6 -6q4 0 7 1zM569 48l1 3v2q0 4 -2 7q-1 2 -4 2q-2 0 -3 -2q-2 -3 -2 -7q0 -9 5 -9q3 0 5 4zM509 42q0 2 -3 4q-2 2 -5 2q-2 0 -3 -2t-1 -4q0 -5 6 -5t6 5zM528 30l1 3v2q0 3 -1 6 q-2 4 -5 4t-4 -4v-7q0 -3 1 -6q2 -2 3 -2q3 0 5 4zM554 21q3 3 3 6q0 5 -9 5q-5 1 -8 -2q-2 -2 -2 -6q0 -2 2 -4q3 -2 6 -2q4 0 8 3z" class='title'/><path transform="translate(2676,0) rotate(180) scale(-1, 1)" d="M196 2l-12 2q-6 1 -14 1l-12 -1l-13 -1q-17 0 -23 16q0 2 -1 10q-1 7 -1 15q0 17 -4 30l-5 16q-2 10 -3 17v26q0 15 -6 39q-1 5 -1 16l-1 8l-1 7l-2 9l-3 8q-3 10 -4 17l-3 13l-2 14l-1 11l-1 12q0 5 2 10t2 7q0 3 -3 6l-3 3l-2 2q-3 5 -4 13v18l-2 7l-2 7q-2 8 -2 14 l-1 17q-1 9 -3 16l-3 9q-2 6 -2 9q0 4 3 7q4 4 4 6t-3 5l-3 2l-2 3q-2 4 -4 13l-1 8l-2 7q-2 5 -3 15l-2 16q-3 14 -6 36l-6 35l-1 5l-1 7q-3 8 -3 13t3 8q3 4 3 6q0 3 -4 6q-5 4 -5 9q0 12 6 18q3 3 9 3q15 0 35 -2l16 -1q10 -1 19 -1q6 0 11 1l7 1q10 1 12 1q12 0 16 -8 q1 -3 2 -8v-8q2 -21 13 -59q3 -12 4 -33l1 -17l1 -17l5 -33l3 -16q2 -9 2 -16q0 -6 2 -15l5 -14l1 -6l1 -5q0 -3 -1 -8l-2 -7q0 -4 2 -8l1 -3l1 -4v-10q0 -6 2 -18l1 -9l2 -9q1 -22 10 -61l1 -2v-3l2 -7q2 -8 6 -8q5 0 6 8v8l1 6q0 7 3 16l3 7l3 7q2 7 3 17l2 17l3 16l4 15 q6 21 7 32q3 27 12 61l2 15l2 15q2 19 5 29q2 6 6 6l3 -1l3 -1q1 0 3 1q1 2 1 3q0 3 -4 8q-5 5 -5 10q0 3 7 7t7 9q0 3 -6 9q-5 5 -5 12q0 4 2 11l1 6l1 5l4 16l3 17q4 24 35 24l7 1h50l10 1q6 0 9 -1q5 -2 8 -9l3 -6l1 -6l2 -5l1 -5q0 -2 -2 -4h-1l-1 -1l-3 1l-3 1 q-7 0 -7 -8q0 -4 2 -6q2 -3 5 -3l3 1l3 1q3 0 4 -6l1 -5v-3q1 -6 5 -16l5 -16l1 -5l2 -6q2 -7 2 -12t-4 -11q-4 -5 -4 -8t3 -7q10 -12 11 -19q3 -17 8 -29l1 -3l2 -4q0 -3 -3 -5q-3 -3 -3 -5t3 -5l2 -3l2 -2v-6q0 -6 2 -14l1 -6l1 -5q0 -2 -1 -3l-3 -1h-7q-5 0 -5 -5 q0 -3 7 -4l5 -1l4 -1q12 -4 17 -26q1 -6 2 -15l1 -7l1 -5l3 -18l3 -18v-4l1 -5l1 -11q2 -14 7 -14t10 19q2 7 3 15q1 7 1 10l-1 8l-1 8q0 11 4 26l2 6l1 5q2 5 2 7l2 17l1 16q2 21 5 34q3 12 5 35l1 17l2 18l4 14q2 9 3 15l1 6l1 7q2 8 4 12q4 4 9 4h5l6 -1q3 0 8 3q4 4 4 7 q0 2 -2 2h-4l-3 -2h-4q-3 0 -7 4q-13 12 -13 20q0 6 3 15l2 7l2 7q2 6 9 8q7 1 7 4l-1 2l-1 2q-3 2 -3 4t3 3q2 1 5 1q5 0 7 -2l1 -3l1 -3q1 -3 4 -7l2 -2l3 -4l2 -5l3 -4q2 -5 6 -8l2 -1l3 -1q3 -2 3 -4t-1 -2l-2 -1h-3l-4 1q-7 0 -7 -12q0 -4 2 -7q2 -2 4 -2q3 0 8 4 q4 5 8 5h4q2 0 5 2l5 4l6 4l5 3l6 2q7 3 9 8l3 6l1 7q0 6 -8 6q-3 0 -8 -3q-6 -3 -8 -3q-3 0 -3 7q0 4 1 9q2 6 4 8q3 4 9 4q2 0 5 -2l4 -4q6 -5 9 -5q2 0 7 4q5 3 9 3q5 0 8 -4l1 -4l1 -3q0 -5 -3 -12l-2 -6l-2 -6v-11q0 -4 -3 -11l-3 -5l-2 -5l-3 -5l-3 -5q-3 -6 -3 -11 q0 -3 4 -7q3 -5 3 -9v-6l-1 -5q-1 -6 -4 -17l-2 -9l-2 -8l-1 -8l-1 -7q-1 -9 -3 -15l-2 -5l-1 -3q-2 -4 -2 -6v-3l1 -3q1 -4 1 -8l-1 -12v-12q0 -12 -4 -33v-6l-1 -8q-1 -10 -3 -14q-2 -3 -7 -3h-5q-6 0 -6 -4q0 -2 1 -6l4 -6q5 -8 5 -13l-2 -13l-2 -14l-4 -36l-5 -32 l-3 -17l-1 -18q-3 -18 -6 -28q-3 -6 -4 -15v-7l-1 -7l-1 -3v-3l-2 -7q-3 -10 -8 -10l-4 2l-4 1q-5 0 -5 -4q0 -2 2 -4q1 -1 3 -1h3l3 1q3 0 4 -3t1 -7l-1 -18l-2 -18l-1 -6l-1 -7q-1 -8 -3 -10q-5 -5 -5 -10v-5q0 -2 -2 -5q-1 -3 -6 -4l-3 -2q-2 -1 -3 -3l-2 -5l-2 -5 q-2 -4 -9 -4h-4l-3 1h-14q-9 0 -15 2l-5 2l-4 1l-5 -1l-5 -1l-3 -2h-4l-18 1l-18 1q-29 0 -36 26q-2 7 -5 22l-2 11l-3 10q-3 13 -6 32l-6 33q-2 13 -7 31l-4 15l-4 15l-6 30l-6 29q-1 6 -3 17l-1 8l-2 8l-1 5l-1 7l-2 12q-4 15 -9 15q-6 0 -11 -19q-1 -6 -2 -14l-1 -6 l-1 -3l-1 -16q-1 -9 -3 -15l-5 -14q-3 -9 -4 -15l-4 -14l-3 -13q-5 -16 -6 -26v-5l-1 -5l-1 -10l-3 -13l-4 -13q-6 -16 -8 -25l-2 -17l-1 -17q-2 -20 -7 -33l-5 -13q-3 -8 -7 -12q-3 -5 -10 -7q-5 -2 -12 -3q-23 -2 -40 -2q-10 0 -25 2zM595 641q0 4 3 7q2 3 6 3q5 0 5 -7 q0 -4 -2 -7t-5 -3q-7 0 -7 7zM116 622q0 7 -8 7q-9 0 -9 -6q0 -3 2 -6q3 -2 6 -2q9 0 9 7zM341 601q1 8 -5 8q-2 0 -5 -2q-3 -3 -3 -5q0 -3 3 -5q2 -2 5 -2q5 0 5 6zM410 542q0 3 -3 6q-3 2 -6 2t-3 -5q0 -4 2 -7q3 -2 6 -2q4 0 4 6zM652 520q3 3 3 7t-4 4t-8 -4 q-4 -3 -4 -7q0 -3 4 -3q5 0 9 3zM608 501q2 2 2 4q0 8 -6 16t-10 8q-6 0 -6 -6t7 -14q6 -8 10 -9q2 0 3 1zM399 516q0 4 -4 4l-3 -1q-1 -1 -1 -3q0 -1 1 -3l3 -1q4 0 4 4zM422 508l1 3l-1 2q-1 2 -3 2q-1 0 -3 -2v-3q0 -1 1 -3l3 -1q1 0 2 2zM631 463q0 4 -4 8t-8 4 q-5 0 -5 -6q0 -4 5 -8q4 -4 8 -4t4 6zM431 460q0 3 -2 7q-3 4 -6 4t-6 -3q-1 -3 -1 -6q0 -8 9 -8q6 0 6 6zM323 451q3 3 3 6q-1 5 -7 5q-3 0 -6 -3q-2 -3 -2 -6q1 -6 6 -6q4 0 6 4zM429 431q1 2 1 4t-2 4t-4 2t-3 -2q-1 -1 -1 -4q0 -2 2 -4q1 -2 3 -2t4 2zM180 434q0 2 -2 4 t-4 2t-3 -2q-1 -1 -1 -4q0 -2 3 -4q1 -1 3 -1q4 0 4 5zM110 412q3 4 3 8q0 5 -5 5q-3 0 -7 -3q-3 -3 -3 -7q-1 -6 5 -6q4 0 7 3zM129 389q2 2 2 4t-1 4q-1 1 -4 1q-2 0 -4 -1q-2 -2 -2 -5q0 -5 5 -5q2 0 4 2zM166 379q0 2 -2 4t-3 2q-3 0 -4 -2q-1 -1 -1 -3t1 -3q2 -1 4 -1 q5 0 5 3zM99 376q0 2 -2 4t-5 2q-6 0 -6 -4q0 -3 2 -5t5 -2q5 0 6 5zM626 361q3 2 3 3q0 6 -4 6q-3 0 -5 -2t-2 -4q0 -4 4 -4q3 0 4 1zM124 354q0 4 -3 7q-2 2 -6 2t-6 -1q-2 -2 -2 -5t2 -5q2 -4 7 -4q8 0 8 6zM616 295q3 3 3 7q0 3 -1 6q-1 4 -3 4q-5 0 -8 -4q-4 -4 -4 -8 q0 -3 2 -6t4 -3q4 0 7 4zM563 111q3 2 3 5q0 6 -7 6q-3 0 -6 -2q-3 -1 -3 -4q0 -6 6 -6q4 0 7 1zM569 48l1 3v2q0 4 -2 7q-1 2 -4 2q-2 0 -3 -2q-2 -3 -2 -7q0 -9 5 -9q3 0 5 4zM509 42q0 2 -3 4q-2 2 -5 2q-2 0 -3 -2t-1 -4q0 -5 6 -5t6 5zM528 30l1 3v2q0 3 -1 6 q-2 4 -5 4t-4 -4v-7q0 -3 1 -6q2 -2 3 -2q3 0 5 4zM554 21q3 3 3 6q0 5 -9 5q-5 1 -8 -2q-2 -2 -2 -6q0 -2 2 -4q3 -2 6 -2q4 0 8 3z" class='title'/><path transform="translate(3400,0) rotate(180) scale(-1, 1)" d="M104 2q-7 1 -11 1h-5l-5 -1l-8 -1q-8 0 -13 7q-4 6 -4 13q0 8 1 22l1 10v8l-1 20v37q1 9 -1 24l-1 11v7q0 12 2 30q1 17 1 25q0 5 -1 20q-2 15 -2 24v24l1 25q0 10 -2 28q-2 19 -2 30q0 60 3 109l1 20l1 19l-1 12l-1 11q-2 14 -2 22q0 5 1 12t1 10q0 2 -1 7t-1 9v7l1 4 v18l2 15q2 13 20 13l11 -1l10 -1l28 -1q15 0 28 2q20 2 39 2q8 0 34 -1l21 -1l20 -1l15 1h15q17 -1 30 -2l12 -1q7 -1 12 -2q5 -2 12 -6l6 -4l6 -3l11 -3l10 -3q11 -4 23 -16q24 -24 34 -42l5 -11l3 -11l5 -14l4 -14q2 -4 2 -10l-1 -5v-5l-1 -9l1 -11v-63l1 -60l1 -60l1 -28 l1 -28l-1 -22l-1 -23l-2 -27l-2 -28q-1 -6 -3 -14l-4 -13l-1 -7l-1 -7q-2 -9 -7 -13l-4 -3l-4 -2q-7 -3 -9 -5q-3 -4 -3 -8v-5l-1 -6q-1 -3 -7 -7q-7 -5 -11 -5t-6 6l-1 6l-1 5v3l-1 3q-1 5 -3 5l-5 -1l-5 -2q-2 0 -10 11q-4 5 -10 5t-12 -7q-7 -7 -7 -14q0 -3 3 -5 q4 -3 8 -3t4 5v4l-1 3q0 4 5 4q8 0 18 -14q9 -13 9 -23q0 -9 -15 -16q-5 -2 -13 -5l-6 -1l-5 -2l-13 -4l-14 -4q-16 -5 -28 -5h-30q-11 0 -47 2t-45 2q-11 0 -37 -2q-26 -3 -31 -3t-13 2zM251 140l16 1h27l10 -1q24 0 30 15q7 16 7 26v13q0 4 2 9q2 6 2 8l-1 8l-2 4l-1 4 q-2 15 0 34l2 13l1 13l-1 4l-1 4q-2 5 -2 7q0 4 3 8l3 4l3 3q5 5 10 5q2 0 7 -2l3 -1l3 -1q2 0 4 1l1 1q0 2 -6 4q-6 3 -10 3l-6 -1l-6 -1q-7 0 -10 8l-1 6v14l1 8q4 44 4 73q0 14 -2 29l-1 13l-3 14q-4 27 -32 27l-5 -1h-14q-11 0 -32 3l-17 2l-16 1q-17 0 -24 -10 q-6 -8 -6 -20q0 -6 1 -18l1 -9v-10l-1 -18l-1 -19q-2 -25 -2 -36q0 -9 1 -26l2 -13v-13l1 -8v-7q0 -9 -2 -13l-1 -3l-1 -2q-2 -2 -2 -5l1 -5l1 -5q0 -4 -10 -6h-5l-5 -1q-5 -1 -5 -4t4 -4l4 -1h4q16 -2 17 -13q1 -12 0 -33l-1 -15l-1 -14l-2 -13l-1 -12q0 -28 31 -28 q11 0 32 2zM423 408q0 2 -1 4t-3 2q-3 0 -3 -4l1 -4q1 -2 3 -2q3 0 3 4zM412 391q0 6 -7 6q-6 0 -6 -5q0 -3 2 -5t5 -2q6 0 6 6zM437 364q2 2 3 4q0 4 -4 4q-3 0 -4 -1q-2 -2 -2 -5q0 -1 1 -2t2 -1q2 0 4 1zM395 337q0 4 -3 6q-2 3 -4 2q-4 0 -4 -5q0 -3 2 -5q2 -3 5 -3 q4 1 4 5zM111 323q0 8 -7 8t-7 -7q0 -3 3 -5q2 -2 5 -2q6 0 6 6zM373 284q2 2 2 6q0 3 -2 7q-3 3 -5 3t-4 -3t-2 -6t2 -6q2 -2 5 -2q2 0 4 1zM409 282q0 3 -3 5q-2 2 -5 2q-6 0 -6 -6q0 -8 7 -8t7 7zM109 281q1 1 1 2q0 4 -3 4l-3 -2q-1 -1 -1 -2q0 -3 3 -3zM136 256 q2 2 2 5q0 2 -2 3q-1 1 -2 1q-3 0 -5 -2q-1 -2 -1 -4q0 -5 4 -5q2 0 4 2zM456 259q0 2 -2 4t-4 2q-3 0 -3 -4q0 -3 2 -5q1 -2 3 -2q4 0 4 5zM377 243q2 3 2 6q0 8 -6 8q-4 0 -6 -3t-2 -6q0 -4 3 -6q2 -2 4 -2q3 0 5 3zM403 234q2 2 2 5q0 7 -5 7q-4 0 -5 -7q0 -7 5 -7 q2 0 3 2zM418 238q2 1 2 3q0 1 -2 2l-2 1l-3 -1q-1 -1 -1 -3q0 -3 4 -3zM426 201q1 2 2 3q1 2 0 4l-1 3q0 3 4 6t4 5q0 1 -2 2l-2 1q-3 0 -8 -2l-4 -2l-3 -1q-3 -2 -5 -3q-2 -2 -2 -3t4 -3l2 -2l3 -3l1 -2v-3q1 -2 3 -2t4 2zM463 203q0 5 -4 10q-5 5 -10 5q-8 0 -8 -9 q0 -12 14 -12q8 0 8 6zM83 196q0 4 -3 4l-3 -1q-1 -1 -1 -3t1 -3l3 -1q3 0 3 4zM366 187q2 3 2 5q0 5 -5 5q-3 0 -4 -2q-2 -2 -2 -5q0 -6 5 -6q2 0 4 3zM365 162q2 2 2 5q0 2 -1 4q-2 2 -4 2q-4 0 -7 -2q-2 -2 -2 -5q0 -2 2 -4q1 -3 4 -3q4 0 6 3zM409 126l1 2l1 2q1 1 4 1 l2 1l3 1q7 5 7 19q0 4 -2 7t-4 3q-3 0 -5 -2t-2 -4l1 -5l1 -6q0 -2 -2 -5t-6 -3q-5 0 -13 11l-6 8q-3 3 -5 3q-4 0 -4 -4q0 -2 1 -6v-3l1 -2q1 -5 5 -10q2 -3 8 -7q7 -4 11 -4q2 0 3 3zM450 141q0 2 -2 7q-2 6 -4 7q-2 2 -4 2q-5 0 -5 -7q0 -6 3 -11q3 -4 7 -4t5 6zM364 133 q0 2 -3 4q-2 2 -5 2q-2 0 -4 -1q-2 -2 -2 -4q0 -4 2 -6q3 -2 5 -2q7 0 7 7zM200 113q0 3 -3 9q-2 6 -5 9q-3 4 -7 4q-5 0 -5 -7q0 -3 2 -10q3 -6 5 -9q3 -3 7 -3q6 0 6 7zM301 109v12q0 4 -2 6t-4 2q-4 0 -5 -4q-1 -2 -1 -8q0 -7 2 -11t4 -4q5 1 6 7zM357 97q0 7 -5 13l-4 5 l-4 4q-2 2 -6 4q-6 3 -9 3q-4 0 -4 -4q0 -5 7 -11l6 -5q4 -3 5 -4l2 -3l2 -3q3 -3 6 -3q4 0 4 4zM395 102q3 2 3 5q0 9 -17 9q-5 0 -5 -4t3 -7q4 -4 10 -4q3 0 6 1zM239 110l1 2q0 1 -1 2l-3 1q-2 -1 -2 -3q0 -3 2 -3zM325 56q2 3 2 7l-1 4v4l-2 8q0 3 2 7l1 4v3q0 6 -3 11 t-7 5q-3 0 -5 -3t-2 -7q0 -3 4 -10l3 -6l1 -5q0 -3 -3 -8l-2 -5q-1 -3 -1 -5q0 -3 2 -6q2 -2 5 -2t6 4zM446 104q0 2 -1 4q-2 1 -3 1q-3 0 -3 -3q0 -2 2 -3q1 -1 2 -1q3 0 3 2zM196 69q0 3 -2 9q-3 5 -5 7q-3 3 -6 3q-4 0 -4 -7t5 -13q4 -5 8 -5t4 6zM289 38q4 1 6 1h8 q6 0 6 5q0 2 -4 5l-4 1l-2 1q-4 1 -7 1h-4l-5 -1h-2q-5 0 -5 2q0 4 13 6q12 1 12 6l-1 2l-2 2q-2 2 -2 4l1 2l2 2q3 3 3 4q0 7 -7 7q-2 0 -4 -2q-2 -1 -2 -3l2 -5l1 -2l1 -2q0 -2 -4 -3l-4 -1h-3q-10 -4 -16 -7q-7 -5 -7 -10q0 -4 5 -6l4 -2l3 -2l4 -2l3 -3q4 -2 6 -2t5 2z M249 60q0 1 -1 2l-2 1q-3 0 -3 -3t3 -3t3 3zM332 42q0 2 -1 3q-1 2 -4 2q-4 0 -4 -5q0 -2 1 -3q2 -2 4 -2q4 0 4 5zM228 39q2 1 2 3q0 3 -5 4q-6 0 -6 -4q0 -2 2 -3q1 -2 4 -2q2 0 3 2zM354 25l1 3q0 4 -3 4q-5 0 -6 -3q0 -2 2 -3q1 -2 3 -2t3 1z" class='title'/></g></svg>